<svg width="40" height="40" viewBox="0 0 40 40" fill="none" xmlns="http://www.w3.org/2000/svg">
<g id="Icon/Capture Sale">
<g id="Group">
<g id="Group_2">
<g id="Group_3">
<path id="Vector" d="M12.7676 17.3242C13.7123 17.3242 14.6256 17.2632 15.4897 17.1496V7.67765C14.6256 7.56414 13.7123 7.50311 12.7676 7.50311C7.3731 7.50311 3 9.4865 3 11.9332V12.894C3 15.3406 7.3731 17.3242 12.7676 17.3242Z" fill="#1F51B1"/>
<path id="Vector_2" d="M15.4897 18.4992V18.2834C14.6254 18.3969 13.7126 18.4588 12.7676 18.4588C8.05878 18.4588 4.1286 16.9474 3.20543 14.936C3.07099 15.2289 3 15.5323 3 15.8433V16.804C3 19.2508 7.3731 21.2342 12.7676 21.2342C13.8464 21.2342 14.884 21.1547 15.8543 21.0082C15.6138 20.5162 15.4897 19.9974 15.4897 19.4599V18.4992Z" fill="#1F51B1"/>
<path id="Vector_3" d="M26.8516 0C21.4571 0 17.084 1.98338 17.084 4.43011V5.39087C17.084 7.8376 21.4571 9.82098 26.8516 9.82098C32.246 9.82098 36.6191 7.8376 36.6191 5.39087V4.43011C36.6191 1.98338 32.246 0 26.8516 0Z" fill="#1F51B1"/>
<path id="Vector_4" d="M26.8516 11.9914C22.1428 11.9914 18.2126 10.4802 17.2894 8.46869C17.155 8.7616 17.084 9.06497 17.084 9.37604V10.3368C17.084 12.7835 21.4571 14.7669 26.8516 14.7669C32.246 14.7669 36.6191 12.7835 36.6191 10.3368V9.37604C36.6191 9.06497 36.5482 8.7616 36.4137 8.46869C35.4905 10.4802 31.5604 11.9914 26.8516 11.9914Z" fill="#1F51B1"/>
<path id="Vector_5" d="M26.8516 16.9375C22.1428 16.9375 18.2126 15.4262 17.2894 13.4148C17.155 13.7077 17.084 14.0111 17.084 14.3221V15.2829C17.084 17.7297 21.4571 19.7131 26.8516 19.7131C32.246 19.7131 36.6191 17.7297 36.6191 15.2829V14.3221C36.6191 14.0111 36.5482 13.7077 36.4137 13.4148C35.4905 15.4263 31.5604 16.9375 26.8516 16.9375Z" fill="#1F51B1"/>
<path id="Vector_6" d="M26.8516 21.2603C22.1428 21.2603 18.2126 19.749 17.2894 17.7376C17.155 18.0306 17.084 18.334 17.084 18.6449V19.6056C17.084 22.0524 21.4571 24.0357 26.8516 24.0357C32.246 24.0357 36.6191 22.0524 36.6191 19.6056V18.6448C36.6191 18.3338 36.5482 18.0303 36.4137 17.7375C35.4905 19.7489 31.5604 21.2603 26.8516 21.2603Z" fill="#1F51B1"/>
</g>
</g>
<path id="Vector_7" d="M30.1341 36.858L26.0794 32.8032L28.9721 31.1323C29.1981 31.0018 29.3297 30.7537 29.3109 30.4933C29.2921 30.2329 29.1262 30.0062 28.8837 29.9095L15.9846 24.764C15.7317 24.663 15.443 24.7225 15.2504 24.915C15.0579 25.1076 14.9984 25.3963 15.0993 25.6492L20.244 38.5498C20.3407 38.7923 20.5674 38.9582 20.8278 38.977C21.0882 38.996 21.3364 38.8644 21.4669 38.6383L23.1376 35.7456L27.192 39.8004C27.3198 39.9282 27.4932 40 27.6738 40C27.8546 40 28.0279 39.9282 28.1556 39.8004L30.1341 37.8216C30.4002 37.5555 30.4002 37.1241 30.1341 36.858Z" fill="#1F51B1"/>
</g>
</g>
</svg>
