<svg width="19" height="19" viewBox="0 0 19 19" fill="none" xmlns="http://www.w3.org/2000/svg">
<path d="M6.30304 17.8347V14.9298C6.30304 14.1883 6.90856 13.5872 7.65551 13.5872H10.386C10.7447 13.5872 11.0887 13.7286 11.3423 13.9804C11.596 14.2322 11.7384 14.5737 11.7384 14.9298V17.8347C11.7362 18.1429 11.858 18.4394 12.0767 18.6582C12.2955 18.8769 12.5932 19 12.9038 19H14.7666C15.6366 19.0022 16.4718 18.6607 17.0878 18.0508C17.7038 17.4408 18.05 16.6126 18.05 15.7489V7.47351C18.05 6.77583 17.7385 6.11405 17.1994 5.66643L10.8623 0.642075C9.75997 -0.238866 8.18055 -0.210423 7.11112 0.70963L0.918661 5.66643C0.354103 6.10085 0.0166747 6.7646 0 7.47351V15.7405C0 17.5407 1.47001 19 3.28336 19H5.10367C5.74866 19 6.27284 18.4834 6.27752 17.8431L6.30304 17.8347Z" fill="#9799A0"/>
</svg>
