<svg width="24" height="24" viewBox="0 0 24 24" fill="none" xmlns="http://www.w3.org/2000/svg">
<path d="M11.0833 13.6042C11.0833 13.2256 10.7735 12.9167 10.3958 12.9167H6.95834V15.6667C6.95834 16.1727 6.54767 16.5834 6.04167 16.5834C5.53567 16.5834 5.125 16.1727 5.125 15.6667V12.9167H1.6875C1.30892 12.9167 1 13.2256 1 13.6042V22.3125C1 22.6911 1.30892 23 1.6875 23H10.3958C10.7735 23 11.0833 22.6911 11.0833 22.3125V13.6042Z" fill="#9799A0"/>
<path d="M22.9993 13.6042C22.9993 13.2256 22.6895 12.9167 22.3118 12.9167H18.8743V15.6667C18.8743 16.1727 18.4637 16.5834 17.9577 16.5834C17.4517 16.5834 17.041 16.1727 17.041 15.6667V12.9167H13.6035C13.2249 12.9167 12.916 13.2256 12.916 13.6042V22.3125C12.916 22.6911 13.2249 23 13.6035 23H22.3118C22.6895 23 22.9993 22.6911 22.9993 22.3125V13.6042Z" fill="#9799A0"/>
<path d="M17.0423 1.6875C17.0423 1.30983 16.7325 1 16.3548 1H12.9173V3.75C12.9173 4.256 12.5066 4.66667 12.0006 4.66667C11.4946 4.66667 11.084 4.256 11.084 3.75V1H7.64648C7.2679 1 6.95898 1.30983 6.95898 1.6875V10.3958C6.95898 10.7744 7.2679 11.0833 7.64648 11.0833H16.3548C16.7325 11.0833 17.0423 10.7744 17.0423 10.3958V1.6875Z" fill="#9799A0"/>
</svg>
