<svg width="40" height="40" viewBox="0 0 40 40" fill="none" xmlns="http://www.w3.org/2000/svg">
<g id="Icon/Receive Stock">
<g id="Group">
<path id="Vector" d="M1 28.9188L6.63627 24.9755L12.9446 33.9921L7.3083 37.9354L1 28.9188Z" fill="#1FB19F"/>
<path id="Vector_2" d="M38.9778 24.5841C39.0209 24.346 38.997 24.1007 38.909 23.8753C38.7847 23.5323 38.5294 23.2527 38.1991 23.0978C37.8688 22.943 37.4905 22.9257 37.1474 23.0496L30.2937 25.5475C30.1216 26.1144 29.7719 26.611 29.2961 26.9641C28.8204 27.3172 28.2438 27.5081 27.6513 27.5086C27.4872 27.5096 27.3235 27.4935 27.1628 27.4605L19.731 26.1461L19.965 24.7974L27.4036 26.1117C27.7406 26.1731 28.0885 26.1071 28.3796 25.9265C28.6707 25.746 28.8845 25.4638 28.9794 25.1346C29.0372 24.9475 29.049 24.7492 29.0138 24.5566C28.9849 24.3444 28.9072 24.1418 28.7867 23.9648C28.5744 23.6651 28.2534 23.4602 27.8922 23.3937L20.9834 22.1757C18.9517 21.8261 16.8664 21.9557 14.8936 22.5542L14.7697 22.5886C13.4641 22.9863 12.2306 23.5903 11.1158 24.3777L8.95508 25.8847L13.2971 32.0915C14.9227 30.975 16.9231 30.5447 18.864 30.8942L20.0958 31.1006C21.4056 31.334 22.7538 31.2177 24.0043 30.7634L38.0901 25.6369C38.3175 25.5549 38.5193 25.4144 38.6751 25.2295C38.8309 25.0447 38.9353 24.8221 38.9778 24.5841V24.5841Z" fill="#1FB19F"/>
<path id="Vector_3" d="M37.3278 4.75248V2.68812C37.3278 2.50562 37.2553 2.33059 37.1262 2.20155C36.9972 2.0725 36.8221 2 36.6396 2H29.0703V4.75248H37.3278Z" fill="#1FB19F"/>
<path id="Vector_4" d="M25.1422 6.32828C25.2721 6.19936 25.4477 6.12702 25.6308 6.12702C25.8138 6.12702 25.9894 6.19936 26.1193 6.32828L27.6951 7.91096V2H23.5664V7.91096L25.1422 6.32828Z" fill="#1FB19F"/>
<path id="Vector_5" d="M13.9336 2.68812V4.75248H22.191V2H14.6217C14.4392 2 14.2642 2.0725 14.1351 2.20155C14.0061 2.33059 13.9336 2.50562 13.9336 2.68812Z" fill="#1FB19F"/>
<path id="Vector_6" d="M22.6177 10.2024C22.4913 10.1518 22.3831 10.0644 22.307 9.95148C22.2309 9.83859 22.1905 9.70545 22.191 9.56933V6.12872H13.9336V21.4256C14.085 21.3706 14.2364 21.3087 14.3946 21.2674L14.5185 21.2261C16.6902 20.5685 18.9864 20.4318 21.2208 20.827L28.1364 22.045C28.6067 22.1269 29.0464 22.3337 29.4094 22.6436H34.2469L36.6829 21.7559C36.8919 21.6832 37.1092 21.637 37.3297 21.6183V6.12872H29.0723V9.56933C29.0728 9.70545 29.0324 9.83859 28.9563 9.95148C28.8802 10.0644 28.772 10.1518 28.6456 10.2024C28.564 10.241 28.4744 10.2598 28.3841 10.2574C28.2013 10.258 28.0257 10.1863 27.8956 10.0579L25.6316 7.78709L23.3677 10.0579C23.271 10.1534 23.1481 10.2181 23.0146 10.2438C22.8811 10.2695 22.743 10.2551 22.6177 10.2024V10.2024Z" fill="#1FB19F"/>
</g>
</g>
</svg>
