<svg width="40" height="40" viewBox="0 0 40 40" fill="none" xmlns="http://www.w3.org/2000/svg">
<g id="Icon/Send Report">
<g id="Group">
<g id="Group_2">
<g id="Group_3">
<path id="Vector" d="M24.5 1V10.25H33.75L24.5 1Z" fill="#B11F5C"/>
</g>
</g>
<g id="Group_4">
<g id="Group_5">
<path id="Vector_2" d="M24.5 12.5625C23.2258 12.5625 22.1875 11.5242 22.1875 10.25V1H8.3125C7.03831 1 6 2.03831 6 3.3125V35.6875C6 36.964 7.03831 38 8.3125 38H31.4375C32.714 38 33.75 36.964 33.75 35.6875V12.5625H24.5ZM18.7188 33.375C14.2487 33.375 10.625 29.7513 10.625 25.2812C10.625 21.2066 13.6451 17.8697 17.5625 17.3031V26.4375H26.6969C26.1303 30.3549 22.7934 33.375 18.7188 33.375ZM29.0094 24.125H19.875V14.9906C20.2566 14.9374 20.6358 14.875 21.0312 14.875C25.5013 14.875 29.125 18.4987 29.125 22.9688C29.125 23.3642 29.0626 23.7434 29.0094 24.125Z" fill="#B11F5C"/>
</g>
</g>
</g>
</g>
</svg>
