<svg width="40" height="42" viewBox="0 0 40 42" fill="none" xmlns="http://www.w3.org/2000/svg">
<g id="Icon/Stock out empties">
<g id="Group">
<g id="Group_2">
<path id="Vector" d="M24.6303 25.5734L22.2368 17.7052L21.7869 16.2368C21.7813 16.1803 21.7813 16.1235 21.7869 16.067L16.2953 17.6967C15.3961 17.9622 14.8825 18.9064 15.1481 19.8056C15.1485 19.8071 15.149 19.8087 15.1495 19.8101L17.4836 27.6953C17.6979 28.4162 18.3611 28.9101 19.1133 28.9091C19.277 28.9099 19.4399 28.887 19.5971 28.8412L25.1226 27.1945L24.6303 25.5734Z" fill="#7A1FB1"/>
</g>
</g>
<g id="Group_3">
<g id="Group_4">
<path id="Vector_2" d="M33.3496 22.9806C33.3492 22.9792 33.3487 22.9776 33.3482 22.9761L31.0056 15.0994C30.74 14.2002 29.7959 13.6866 28.8967 13.9522C28.8952 13.9526 28.8936 13.9531 28.8921 13.9535L23.3496 15.6002C23.3796 15.6457 23.4052 15.6941 23.426 15.7445L23.8759 17.2214L26.2694 25.0895L26.7617 26.7107L32.2024 25.0895C33.1016 24.824 33.6152 23.8798 33.3496 22.9806Z" fill="#7A1FB1"/>
</g>
</g>
<g id="Group_5">
<g id="Group_6">
<path id="Vector_3" d="M27.1496 10.8593C27.1452 10.8438 27.1406 10.8284 27.1359 10.8131L25.4383 5.18564C25.1728 4.28647 24.2286 3.77285 23.3294 4.03841C23.3279 4.03884 23.3263 4.03937 23.3249 4.03979L18.9961 5.32994L19.4799 6.95959L21.169 12.621L21.6528 14.2082L25.973 12.952C26.8758 12.6989 27.4025 11.762 27.1496 10.8593Z" fill="#7A1FB1"/>
</g>
</g>
<g id="Group_7">
<g id="Group_8">
<path id="Vector_4" d="M19.5468 13.0963L17.8492 7.46038L17.3654 5.83072L13.1215 7.10389C12.2223 7.36945 11.7087 8.31361 11.9743 9.21279C11.9747 9.21427 11.9752 9.21586 11.9756 9.21735L13.6393 14.8532C13.8995 15.7539 14.8406 16.2731 15.7414 16.0129C15.7565 16.0085 15.7717 16.0039 15.7867 15.9991L20.0306 14.7259L19.5468 13.0963Z" fill="#7A1FB1"/>
</g>
</g>
<g id="Group_9">
<g id="Group_10">
<g id="Vector_5">
<path d="M37.6649 26.0336C37.5157 25.5719 37.0244 25.3143 36.5598 25.4543L17.0065 31.2562L8.78949 3.62846C8.71307 3.43473 8.57114 3.27398 8.38844 3.17394L3.41546 0.170541C3.01742 -0.118993 2.45996 -0.0309858 2.17054 0.367165C1.88101 0.765205 1.96901 1.32266 2.36717 1.61208C2.41629 1.64784 2.46899 1.67848 2.52435 1.70343L7.20324 4.49294L15.4292 32.2187C12.8629 33.4236 11.7594 36.4809 12.9643 39.0472C14.1692 41.6134 17.2265 42.717 19.7928 41.5121C22.359 40.3071 23.4626 37.2498 22.2577 34.6836C21.7637 33.6315 20.9273 32.7781 19.8852 32.2632L37.0857 27.1477C37.5519 26.9984 37.8106 26.501 37.6649 26.0336ZM20.7763 35.8905C21.2783 37.6564 20.2536 39.495 18.4877 39.997C16.7218 40.499 14.8832 39.4743 14.3812 37.7083C13.8792 35.9424 14.9039 34.1038 16.6698 33.6018C16.9735 33.5155 17.2879 33.473 17.6036 33.4753C19.0792 33.4892 20.37 34.4718 20.7763 35.8905Z" fill="#7A1FB1"/>
<path d="M20.7763 35.8905C21.2783 37.6564 20.2536 39.495 18.4877 39.997C16.7218 40.499 14.8832 39.4743 14.3812 37.7083C13.8792 35.9424 14.9039 34.1038 16.6698 33.6018C16.9735 33.5155 17.2879 33.473 17.6036 33.4753C19.0792 33.4892 20.37 34.4718 20.7763 35.8905Z" fill="#7A1FB1"/>
</g>
</g>
</g>
</g>
</svg>
