<svg width="24" height="24" viewBox="0 0 24 24" fill="none" xmlns="http://www.w3.org/2000/svg">
<path d="M11.0785 18C11.0785 19.3471 11.0019 20.5669 10.8594 21.3172C10.8594 21.3289 10.7182 22.0155 10.6271 22.2443C10.4846 22.5746 10.2272 22.8542 9.90522 23.0324C9.64787 23.1598 9.37601 23.2222 9.09226 23.2222C8.79664 23.2105 8.24103 23.0194 8.02196 22.9296C6.57817 22.3718 3.8186 20.5409 2.76017 19.4239C2.58068 19.2457 2.38668 19.0299 2.33521 18.9791C2.11613 18.6983 2 18.3563 2 17.9883C2 17.6567 2.10294 17.3264 2.31014 17.0598C2.40912 16.9213 2.60609 16.7192 2.69839 16.6268L2.74829 16.5774C3.83047 15.42 6.52669 13.6802 7.89394 13.121C7.89394 13.1091 8.57594 12.8306 8.98745 12.7742L9.09226 12.7647L9.14373 12.7647C9.73762 12.7647 10.2919 13.095 10.5756 13.6294C10.7301 13.922 10.8726 14.7725 10.8858 14.7855C11.0019 15.5475 11.0785 16.7165 11.0785 18ZM11.0105 6.22837C11.0105 6.76087 10.6043 7.19918 10.0803 7.25908L9.9574 7.26606L4.86992 7.55084C4.12824 7.55084 3.52778 6.95917 3.52778 6.22837C3.52778 5.54324 4.05553 4.97926 4.73262 4.91144L4.86992 4.9046L9.9574 5.19068C10.5394 5.19068 11.0105 5.65491 11.0105 6.22837ZM22 6.23526C22 6.56425 21.8971 6.89454 21.6912 7.16242C21.6079 7.27783 21.457 7.43743 21.3556 7.5409L21.2517 7.64485C20.1682 8.80088 17.4734 10.5421 16.1062 11.1012C16.1062 11.1119 15.4231 11.3915 15.0114 11.448L14.9066 11.4575L14.8551 11.4575C14.2625 11.4575 13.7083 11.1259 13.4245 10.5928C13.2688 10.3002 13.1276 9.44976 13.1144 9.43675C12.9983 8.67474 12.9217 7.50571 12.9217 6.22226C12.9217 4.87508 12.9983 3.65534 13.1408 2.90503C13.1408 2.89203 13.282 2.20674 13.3731 1.97787C13.5143 1.64758 13.7729 1.368 14.0949 1.18985C14.3523 1.06242 14.6241 1 14.9066 1C15.2035 1.0117 15.7578 1.20286 15.9769 1.29128C17.4219 1.85044 20.1814 3.68005 21.2385 4.79836C21.4193 4.97651 21.6133 5.19237 21.6648 5.24308C21.8839 5.52266 22 5.86596 22 6.23526ZM20.4722 17.9941C20.4722 18.6792 19.9445 19.2421 19.2673 19.3098L19.13 19.3166L14.0425 19.0318C13.4605 19.0318 12.9893 18.5676 12.9893 17.9941C12.9893 17.4616 13.3956 17.0233 13.9196 16.9634L14.0425 16.9564L19.13 16.6703C19.8717 16.6703 20.4722 17.2633 20.4722 17.9941Z" fill="#9799A0"/>
</svg>
