<svg width="56" height="56" viewBox="0 0 56 56" fill="none" xmlns="http://www.w3.org/2000/svg">
<g id="Users">
<rect width="56" height="56" rx="8" fill="white" fill-opacity="0.3"/>
<g id="Iconly/Bold/3 User">
<g id="3 User">
<path id="3 Friends" d="M27.9073 32.1629C34.1458 32.1629 39.4727 33.152 39.4727 37.1097C39.4727 41.0659 34.18 42.0909 27.9073 42.0909C21.6688 42.0909 16.342 41.1019 16.342 37.1458C16.342 33.188 21.6346 32.1629 27.9073 32.1629ZM37.882 29.7798C40.267 29.7356 42.8311 30.0631 43.7786 30.2956C45.7859 30.6902 47.1062 31.4958 47.6532 32.6666C48.1156 33.6278 48.1156 34.7429 47.6532 35.7025C46.8164 37.5184 44.1188 38.1014 43.0704 38.252C42.8539 38.2848 42.6797 38.0965 42.7025 37.8787C43.2381 32.8468 38.9776 30.461 37.8754 29.9124C37.8282 29.8879 37.8185 29.8502 37.8233 29.8273C37.8266 29.8109 37.8461 29.7847 37.882 29.7798ZM17.6702 29.7764L18.1193 29.7804C18.1551 29.7853 18.173 29.8115 18.1763 29.8263C18.1811 29.8508 18.1714 29.8869 18.1258 29.9131C17.022 30.4616 12.7615 32.8474 13.2971 37.8777C13.3199 38.0971 13.1473 38.2838 12.9308 38.2527C11.8824 38.102 9.18478 37.5191 8.34799 35.7031C7.884 34.742 7.884 33.6285 8.34799 32.6673C8.895 31.4965 10.2137 30.6909 12.221 30.2946C13.1701 30.0637 15.7326 29.7362 18.1193 29.7804L17.6702 29.7764ZM27.9073 13C32.1548 13 35.5606 16.4223 35.5606 20.6961C35.5606 24.9682 32.1548 28.3938 27.9073 28.3938C23.6599 28.3938 20.2541 24.9682 20.2541 20.6961C20.2541 16.4223 23.6599 13 27.9073 13ZM38.2971 14.2834C42.3997 14.2834 45.6215 18.1659 44.5242 22.4904C43.7835 25.4018 41.1021 27.3357 38.1148 27.2571C37.8152 27.2489 37.5205 27.2211 37.2356 27.1719C37.0289 27.1359 36.9247 26.9018 37.0419 26.7282C38.1815 25.0416 38.8311 23.0128 38.8311 20.835C38.8311 18.5621 38.1213 16.4433 36.8889 14.7059C36.8498 14.6519 36.8205 14.5684 36.8596 14.5061C36.8921 14.4554 36.9524 14.4292 37.0093 14.4161C37.4245 14.3309 37.851 14.2834 38.2971 14.2834ZM17.7017 14.2833C18.1478 14.2833 18.5743 14.3308 18.9911 14.4159C19.0464 14.429 19.1083 14.4569 19.1408 14.506C19.1783 14.5682 19.1506 14.6517 19.1115 14.7057C17.8791 16.4431 17.1693 18.562 17.1693 20.8348C17.1693 23.0126 17.8189 25.0414 18.9585 26.728C19.0757 26.9016 18.9715 27.1358 18.7648 27.1718C18.4782 27.2225 18.1852 27.2487 17.8857 27.2569C14.8983 27.3355 12.2169 25.4017 11.4762 22.4903C10.3773 18.1657 13.5991 14.2833 17.7017 14.2833Z" fill="white"/>
</g>
</g>
</g>
</svg>
