<svg width="24" height="24" viewBox="0 0 24 24" fill="none" xmlns="http://www.w3.org/2000/svg">
<path fill-rule="evenodd" clip-rule="evenodd" d="M22.6522 11.7265C21.8177 11.5095 21.3401 11.3731 21.0124 10.7403L19.9166 8.52165C19.5888 7.88878 18.7374 7.37092 18.0248 7.37092H16.5261C16.5261 7.37092 16.3245 7.37513 16.3245 7.17224V5.31152C16.3245 4.5902 15.9163 4 15.048 4H2.83333C1.5902 4 1 4.59027 1 5.31152V6V6.4776V9.82591V10.2269V13.6091V14V16.4268C1 17.148 1.5902 17.7383 2.31152 17.7383H3.03597C3.20026 17.7383 3.22446 17.6468 3.22446 17.6008C3.22446 15.9655 4.55503 14.6353 6.19037 14.6353C7.82584 14.6353 9.15634 15.9657 9.15634 17.6008L9.15616 17.6129C9.15513 17.6613 9.15347 17.7383 9.26887 17.7383H15.1152C15.227 17.7383 15.2266 17.6475 15.2264 17.6053L15.2264 17.6008C15.2264 15.9655 16.5569 14.6353 18.1923 14.6353C19.8277 14.6353 21.1582 15.9657 21.1582 17.6008V17.6029C21.1582 17.6497 21.1582 17.7383 21.2296 17.7383H22.7036C23.4165 17.7383 23.9996 17.1552 23.9996 16.4423V13.9801C23.9997 12.054 23.4348 11.9171 22.7992 11.763C22.7505 11.7512 22.7015 11.7393 22.6522 11.7265ZM20.186 11.6112H16.4971C16.3447 11.6112 16.3244 11.4628 16.3244 11.4628V8.38983C16.3244 8.38983 16.3158 8.27183 16.5115 8.27183H17.5641C18.1983 8.27183 18.9559 8.73263 19.2475 9.29576L20.2226 11.2699C20.2636 11.3494 20.3075 11.4199 20.3545 11.4832C20.3891 11.5295 20.3311 11.6112 20.186 11.6112ZM3.91522 17.6007C3.91522 16.3434 4.93407 15.3249 6.19127 15.3249C7.44892 15.3249 8.46751 16.3434 8.46751 17.6007C8.46751 18.8581 7.44892 19.8766 6.19127 19.8766C4.93407 19.8766 3.91522 18.8581 3.91522 17.6007ZM5.20191 17.6007C5.20191 18.1472 5.64475 18.5901 6.19127 18.5901C6.73785 18.5901 7.18101 18.1472 7.18101 17.6007C7.18101 17.0539 6.73785 16.6113 6.19127 16.6113C5.64475 16.6113 5.20191 17.0539 5.20191 17.6007ZM15.9171 17.6007C15.9171 16.3434 16.9359 15.3249 18.1931 15.3249C19.4508 15.3249 20.4693 16.3434 20.4693 17.6007C20.4693 18.8581 19.4508 19.8766 18.1931 19.8766C16.9359 19.8766 15.9171 18.8581 15.9171 17.6007ZM17.2038 17.6007C17.2038 18.1472 17.6466 18.5901 18.1931 18.5901C18.7397 18.5901 19.1829 18.1472 19.1829 17.6007C19.1829 17.0539 18.7397 16.6113 18.1931 16.6113C17.6466 16.6113 17.2038 17.0539 17.2038 17.6007Z" fill="#9799A0"/>
</svg>
