<svg width="32" height="32" viewBox="0 0 32 32" fill="none" xmlns="http://www.w3.org/2000/svg">
<g clip-path="url(#clip0_213_2226)">
<path opacity="0.15" d="M26 32H6C2.686 32 0 29.314 0 26V6C0 2.686 2.686 0 6 0H26C29.314 0 32 2.686 32 6V26C32 29.314 29.314 32 26 32Z" fill="#74767E"/>
<path d="M23.5004 12.0771V7.5625C23.5004 7.252 23.2484 7 22.9379 7H21.0625C20.752 7 20.5 7.252 20.5 7.5625V9.3175C19.1747 8.56375 17.6402 8.125 16 8.125C11.0309 8.125 6.98989 12.0884 7.00002 16.9551C7.00114 17.2577 7.25989 17.4996 7.56252 17.4996H8.49964V24.2496C8.49964 24.6647 8.83602 25 9.25001 25H10.7496V16H21.2492V25H22.75C23.164 25 23.5004 24.6647 23.5004 24.2496V17.4996H24.4375C24.7401 17.4996 24.9989 17.2577 25 16.9551C25.0034 15.1529 24.4487 13.4755 23.5004 12.0771V12.0771Z" fill="#74767E"/>
<g opacity="0.7">
<path d="M11.875 23.1246H20.1246V24.9999H11.875V23.1246Z" fill="#74767E"/>
<path d="M11.875 20.1253H20.1246V22.0007H11.875V20.1253Z" fill="#74767E"/>
<path d="M11.875 17.125H20.1246V19.0003H11.875V17.125Z" fill="#74767E"/>
</g>
</g>
<defs>
<clipPath id="clip0_213_2226">
<rect width="32" height="32" fill="white"/>
</clipPath>
</defs>
</svg>
